<svg width="44" height="44" viewBox="0 0 44 44" fill="none" xmlns="http://www.w3.org/2000/svg">
<g filter="url(#filter0_d_19_100)">
<rect x="8" y="4" width="28" height="28" rx="8" fill="white"/>
</g>
<path fill-rule="evenodd" clip-rule="evenodd" d="M25.4775 17.9074C25.7273 17.2897 25.2727 16.6154 24.6063 16.6154V16.6154C24.0874 16.6154 23.6667 16.1947 23.6667 15.6757V14.7692C23.6667 14.2597 24.0848 14.3077 24.6 14.3077V14.3077C25.1155 14.3077 25.5333 13.8898 25.5333 13.3744V13.1538C25.5333 12.5166 25.0167 12 24.3795 12H23.6667C22.9241 12 22.2119 12.2918 21.6868 12.8111C21.1617 13.3304 20.8667 14.0348 20.8667 14.7692V15.6821C20.8667 16.1975 20.4488 16.6154 19.9333 16.6154V16.6154C19.4179 16.6154 19 17.0333 19 17.5487V17.9897C19 18.5052 19.4179 18.9231 19.9333 18.9231V18.9231C20.4488 18.9231 20.8667 19.3409 20.8667 19.8564V22.6C20.8667 23.3732 21.4935 24 22.2667 24V24C23.0399 24 23.6667 23.3732 23.6667 22.6V19.7593C23.6667 19.2975 24.041 18.9231 24.5029 18.9231V18.9231C24.8436 18.9231 25.1503 18.7163 25.2781 18.4004L25.4775 17.9074Z" fill="#BD011C"/>
<defs>
<filter id="filter0_d_19_100" x="0" y="0" width="44" height="44" filterUnits="userSpaceOnUse" color-interpolation-filters="sRGB">
<feFlood flood-opacity="0" result="BackgroundImageFix"/>
<feColorMatrix in="SourceAlpha" type="matrix" values="0 0 0 0 0 0 0 0 0 0 0 0 0 0 0 0 0 0 127 0" result="hardAlpha"/>
<feOffset dy="4"/>
<feGaussianBlur stdDeviation="4"/>
<feColorMatrix type="matrix" values="0 0 0 0 0 0 0 0 0 0 0 0 0 0 0 0 0 0 0.15 0"/>
<feBlend mode="normal" in2="BackgroundImageFix" result="effect1_dropShadow_19_100"/>
<feBlend mode="normal" in="SourceGraphic" in2="effect1_dropShadow_19_100" result="shape"/>
</filter>
</defs>
</svg>
