<svg width="44" height="44" viewBox="0 0 44 44" fill="none" xmlns="http://www.w3.org/2000/svg">
<g filter="url(#filter0_d_19_97)">
<rect x="8" y="4" width="28" height="28" rx="8" fill="white"/>
<path d="M27 14.0042C26.5957 14.1894 26.0838 14.3633 25.625 14.4211C26.0916 14.1349 26.8318 13.5391 27 13C26.5641 13.2648 25.7758 13.5476 25.2615 13.6499C24.8509 13.1999 24.2651 13 23.6161 13C22.3695 13 21.5 14.0918 21.5 15.3684V16.3158C19.6667 16.3158 17.8792 14.8725 16.7668 13.4737C16.5657 13.8262 16.4601 14.2283 16.4611 14.6375C16.4611 15.4992 17.227 16.3736 17.8333 16.7895C17.4635 16.7776 16.7631 16.4858 16.4583 16.3158V16.3428C16.4583 17.464 17.2196 18.2252 18.2513 18.4374C18.063 18.4909 17.8333 18.6842 16.9497 18.6842C17.2366 19.6008 18.679 20.0854 19.6667 20.1053C18.8939 20.7244 17.5162 21.0526 16.4583 21.0526C16.2755 21.0526 16.1765 21.0631 16 21.0417C16.9983 21.6954 18.3925 22 19.6667 22C23.8178 22 26.0833 18.7231 26.0833 15.6668C26.0833 15.5664 26.0801 15.2301 26.0751 15.1316C26.5187 14.8085 26.6984 14.4703 27 14.0042Z" fill="#BD011C"/>
</g>
<defs>
<filter id="filter0_d_19_97" x="0" y="0" width="44" height="44" filterUnits="userSpaceOnUse" color-interpolation-filters="sRGB">
<feFlood flood-opacity="0" result="BackgroundImageFix"/>
<feColorMatrix in="SourceAlpha" type="matrix" values="0 0 0 0 0 0 0 0 0 0 0 0 0 0 0 0 0 0 127 0" result="hardAlpha"/>
<feOffset dy="4"/>
<feGaussianBlur stdDeviation="4"/>
<feColorMatrix type="matrix" values="0 0 0 0 0 0 0 0 0 0 0 0 0 0 0 0 0 0 0.15 0"/>
<feBlend mode="normal" in2="BackgroundImageFix" result="effect1_dropShadow_19_97"/>
<feBlend mode="normal" in="SourceGraphic" in2="effect1_dropShadow_19_97" result="shape"/>
</filter>
</defs>
</svg>
