<svg width="14" height="15" viewBox="0 0 14 15" fill="none" xmlns="http://www.w3.org/2000/svg">
<g clip-path="url(#clip0_19_194)">
<path d="M13.3268 4.62395C13.2955 3.91518 13.1809 3.42791 13.0167 3.00568C12.8473 2.55749 12.5868 2.15623 12.2454 1.82266C11.9118 1.4839 11.5079 1.22067 11.0649 1.05394C10.6402 0.889749 10.1555 0.775133 9.44672 0.743883C8.73265 0.709986 8.50596 0.702148 6.6949 0.702148C4.88383 0.702148 4.65715 0.709986 3.94573 0.741236C3.23696 0.772486 2.74968 0.887204 2.32756 1.05129C1.87927 1.22067 1.47801 1.48126 1.14444 1.82266C0.80568 2.15623 0.542551 2.56014 0.375715 3.00313C0.211527 3.42791 0.0969099 3.91253 0.0656601 4.62131C0.0317637 5.33537 0.0239258 5.56206 0.0239258 7.37312C0.0239258 9.18419 0.0317637 9.41088 0.0630135 10.1223C0.0942633 10.8311 0.208982 11.3183 0.373171 11.7406C0.542551 12.1888 0.80568 12.59 1.14444 12.9236C1.47801 13.2623 1.88192 13.5256 2.32491 13.6923C2.74968 13.8565 3.23431 13.9711 3.94318 14.0024C4.6545 14.0337 4.88129 14.0415 6.69235 14.0415C8.50342 14.0415 8.73011 14.0337 9.44152 14.0024C10.1503 13.9711 10.6376 13.8565 11.0597 13.6923C11.9562 13.3457 12.6649 12.6369 13.0115 11.7406C13.1756 11.3158 13.2903 10.8311 13.3216 10.1223C13.3528 9.41088 13.3607 9.18419 13.3607 7.37312C13.3607 5.56206 13.358 5.33537 13.3268 4.62395ZM12.1255 10.0702C12.0968 10.7216 11.9874 11.0734 11.8962 11.308C11.6721 11.8891 11.2109 12.3503 10.6297 12.5744C10.3952 12.6656 10.0409 12.7751 9.39195 12.8037C8.68837 12.835 8.47736 12.8428 6.69754 12.8428C4.91773 12.8428 4.70407 12.835 4.00304 12.8037C3.35157 12.7751 2.99978 12.6656 2.76526 12.5744C2.47607 12.4676 2.21284 12.2982 1.99918 12.0767C1.77768 11.8604 1.6083 11.5998 1.50142 11.3106C1.41022 11.0761 1.30079 10.7216 1.27219 10.0728C1.24084 9.36924 1.2331 9.15813 1.2331 7.37831C1.2331 5.5985 1.24084 5.38484 1.27219 4.68391C1.30079 4.03244 1.41022 3.68065 1.50142 3.44613C1.6083 3.15684 1.77768 2.89371 2.00183 2.67995C2.21803 2.45845 2.47861 2.28907 2.7679 2.18229C3.00243 2.09109 3.35687 1.98166 4.00568 1.95296C4.70926 1.92171 4.92038 1.91387 6.70009 1.91387C8.48255 1.91387 8.69356 1.92171 9.3946 1.95296C10.0461 1.98166 10.3979 2.09109 10.6324 2.18229C10.9216 2.28907 11.1848 2.45845 11.3985 2.67995C11.62 2.89625 11.7893 3.15684 11.8962 3.44613C11.9874 3.68065 12.0968 4.03499 12.1255 4.68391C12.1568 5.38749 12.1646 5.5985 12.1646 7.37831C12.1646 9.15813 12.1568 9.3666 12.1255 10.0702Z" fill="white"/>
<path d="M6.69427 3.94678C4.80249 3.94678 3.26758 5.48158 3.26758 7.37347C3.26758 9.26536 4.80249 10.8002 6.69427 10.8002C8.58616 10.8002 10.121 9.26536 10.121 7.37347C10.121 5.48158 8.58616 3.94678 6.69427 3.94678ZM6.69427 9.59628C5.46698 9.59628 4.47146 8.60087 4.47146 7.37347C4.47146 6.14607 5.46698 5.15066 6.69427 5.15066C7.92167 5.15066 8.91708 6.14607 8.91708 7.37347C8.91708 8.60087 7.92167 9.59628 6.69427 9.59628Z" fill="white"/>
<path d="M11.0566 3.81121C11.0566 4.25298 10.6984 4.61118 10.2565 4.61118C9.81475 4.61118 9.45654 4.25298 9.45654 3.81121C9.45654 3.36933 9.81475 3.01123 10.2565 3.01123C10.6984 3.01123 11.0566 3.36933 11.0566 3.81121Z" fill="white"/>
</g>
<defs>
<clipPath id="clip0_19_194">
<rect width="13.3393" height="13.3393" fill="white" transform="translate(0 0.702148)"/>
</clipPath>
</defs>
</svg>
