<svg width="14" height="15" viewBox="0 0 14 15" fill="white" xmlns="http://www.w3.org/2000/svg">
<g clip-path="url(#clip0_19_185)">
<path d="M13.336 14.0415V14.041H13.3394V9.14877C13.3394 6.75547 12.8241 4.91187 10.0262 4.91187C8.68116 4.91187 7.77853 5.64998 7.41003 6.34974H7.37112V5.1353H4.71826V14.041H7.48062V9.63121C7.48062 8.47014 7.70072 7.34741 9.13859 7.34741C10.5553 7.34741 10.5765 8.67245 10.5765 9.70569V14.0415H13.336Z" fill="white"/>
<path d="M0.219727 5.13574H2.98542V14.0414H0.219727V5.13574Z" fill="white"/>
<path d="M1.60183 0.702148C0.717545 0.702148 0 1.41969 0 2.30398C0 3.18827 0.717545 3.92082 1.60183 3.92082C2.48612 3.92082 3.20367 3.18827 3.20367 2.30398C3.20311 1.41969 2.48556 0.702148 1.60183 0.702148V0.702148Z" fill="white"/>
</g>
<defs>
<clipPath id="clip0_19_185">
<rect width="13.3393" height="13.3393" fill="white" transform="translate(0 0.702148)"/>
</clipPath>
</defs>
</svg>
