<svg width="15" height="14" viewBox="0 0 15 14" fill="none" xmlns="http://www.w3.org/2000/svg">
<path d="M14.831 5.25921C14.7802 5.1052 14.645 4.99296 14.4823 4.96971L9.91059 4.31564L7.86601 0.237096C7.79325 0.0919061 7.64305 0 7.47861 0C7.31415 0 7.16397 0.0919061 7.09118 0.237096L5.04651 4.31564L0.474894 4.96971C0.312186 4.99296 0.176955 5.1052 0.126147 5.25918C0.0753095 5.41319 0.117708 5.58222 0.235483 5.69523L3.54345 8.86994L2.76266 13.3528C2.73484 13.5123 2.80149 13.6736 2.93453 13.7688C3.00979 13.8226 3.09894 13.85 3.18851 13.85C3.2573 13.85 3.32631 13.8339 3.3895 13.8011L7.47858 11.6846L11.5675 13.8011C11.7131 13.8765 11.8894 13.8639 12.0225 13.7688C12.1555 13.6736 12.2222 13.5123 12.1944 13.3527L11.4134 8.86994L14.7217 5.6952C14.8395 5.58222 14.8819 5.41319 14.831 5.25921Z" fill="#FFCA56"/>
</svg>
